<svg width="30" height="30" viewBox="0 0 30 30" fill="none" xmlns="http://www.w3.org/2000/svg">
<path fill-rule="evenodd" clip-rule="evenodd" d="M9.96966 15.3269C10.2626 15.034 10.7374 15.034 11.0303 15.3269L13.5 17.7966L19.8268 11.4697C20.1197 11.1768 20.5946 11.1768 20.8875 11.4697C21.1804 11.7626 21.1804 12.2375 20.8875 12.5304L14.0303 19.3875C13.7374 19.6804 13.2626 19.6804 12.9697 19.3875L9.96966 16.3875C9.67677 16.0946 9.67677 15.6198 9.96966 15.3269Z" fill="#C4C4C4"/>
<path fill-rule="evenodd" clip-rule="evenodd" d="M14.7857 28.7144C7.34185 28.7144 1.28571 22.6582 1.28571 15.2144C1.28571 7.7705 7.34185 1.71436 14.7857 1.71436C22.2296 1.71436 28.2857 7.7705 28.2857 15.2144C28.2857 22.6582 22.2296 28.7144 14.7857 28.7144ZM14.7857 3.00007C8.05071 3.00007 2.57142 8.47936 2.57142 15.2144C2.57142 21.9494 8.05071 27.4286 14.7857 27.4286C21.5207 27.4286 27 21.9494 27 15.2144C27 8.47936 21.5207 3.00007 14.7857 3.00007Z" fill="#C4C4C4"/>
</svg>
