<?xml version="1.0" encoding="UTF-8"?> <svg xmlns="http://www.w3.org/2000/svg" width="180" height="180" viewBox="0 0 180 180" fill="none"><rect width="180" height="180" rx="90" fill="white"></rect><path fill-rule="evenodd" clip-rule="evenodd" d="M117.419 82H76.631C72.235 82 67 85.041 67 89.436V93.492C67 94.877 68.182 96.582 68.814 98.275C70.649 103.187 76.449 105.787 81.487 104.331L90.722 101.72C91.768 99.693 94.053 98.122 96.585 98.122C99.117 98.122 101.352 99.693 102.396 101.72L112.358 104.399C117.611 105.815 122.379 102.837 123.984 97.639C124.44 96.16 124 94.704 124 93.492V89.436C124 85.023 121.833 82 117.419 82Z" fill="#88FCE6"></path><path fill-rule="evenodd" clip-rule="evenodd" d="M109.34 103.413C109.34 103.413 109.34 103.413 109.339 103.413C108.322 103.413 107.303 103.276 106.309 103.008L96.365 100.33C95.958 100.221 95.616 99.944 95.423 99.569C94.563 97.903 92.779 96.784 90.981 96.784C89.175 96.784 87.385 97.903 86.525 99.569C86.336 99.937 86.004 100.209 85.606 100.323L76.518 102.934C75.461 103.239 74.362 103.395 73.255 103.395C68.376 103.395 63.981 100.408 62.32 95.962C61.625 94.1 61 92.293 61 90.653V86.598C61 81.485 65.651 77 70.954 77H111.742C116.934 77 121 81.216 121 86.598V90.653C121 92.276 120.777 93.82 120.338 95.243C118.829 100.129 114.409 103.413 109.34 103.413ZM97.747 97.596L107.09 100.112C107.829 100.312 108.586 100.413 109.339 100.413C109.34 100.413 109.34 100.413 109.34 100.413C113.086 100.413 116.353 97.979 117.471 94.358C117.822 93.222 118 91.975 118 90.653V86.598C118 82.898 115.251 80 111.742 80H70.954C67.314 80 64 83.145 64 86.598V90.653C64 91.791 64.559 93.381 65.131 94.912C66.355 98.191 69.621 100.395 73.255 100.395C74.08 100.395 74.898 100.279 75.688 100.051L84.193 97.608C85.66 95.266 88.257 93.784 90.981 93.784C93.693 93.784 96.279 95.26 97.747 97.596Z" fill="#100227"></path><path fill-rule="evenodd" clip-rule="evenodd" d="M107.739 97.5758C107.261 97.5758 106.763 97.5518 106.245 97.5028C105.42 97.4248 104.814 96.6928 104.893 95.8688C104.971 95.0428 105.709 94.4398 106.526 94.5158C108.939 94.7428 110.663 94.3318 111.652 93.2908C112.99 91.8828 112.679 89.6208 112.675 89.5988C112.557 88.7818 113.118 88.0178 113.934 87.8938C114.755 87.7698 115.512 88.3238 115.64 89.1388C115.663 89.2888 116.193 92.8378 113.853 95.3308C112.45 96.8228 110.398 97.5758 107.739 97.5758Z" fill="#100227"></path><path fill-rule="evenodd" clip-rule="evenodd" d="M75.347 97.5759C72.687 97.5759 70.636 96.8239 69.233 95.3309C66.893 92.8379 67.423 89.2889 67.446 89.1389C67.575 88.3199 68.35 87.7629 69.162 87.8909C69.978 88.0199 70.535 88.7839 70.41 89.5989C70.404 89.6449 70.102 91.8909 71.434 93.2909C72.424 94.3319 74.149 94.7429 76.56 94.5159C77.391 94.4389 78.115 95.0439 78.193 95.8689C78.271 96.6929 77.666 97.4249 76.841 97.5029C76.323 97.5519 75.825 97.5759 75.347 97.5759Z" fill="#100227"></path></svg> 