<?xml version="1.0" encoding="UTF-8"?> <svg xmlns="http://www.w3.org/2000/svg" width="180" height="180" viewBox="0 0 180 180" fill="none"><rect width="180" height="180" rx="90" fill="white"></rect><path fill-rule="evenodd" clip-rule="evenodd" d="M65 85.019V114.201V116.789V122.045H70V117.042H115V122.045H120V116.789V114.201V85.019H65Z" fill="#88FCE6"></path><path fill-rule="evenodd" clip-rule="evenodd" d="M99.061 79.4358C99.061 82.3418 96.707 84.6978 93.803 84.6978C90.898 84.6978 88.544 82.3418 88.544 79.4358C88.544 76.5298 90.898 74.1738 93.803 74.1738C96.707 74.1738 99.061 76.5298 99.061 79.4358Z" fill="#E56A77"></path><path fill-rule="evenodd" clip-rule="evenodd" d="M88.372 62.0039H98.544L102.682 73.0109H84.234L88.372 62.0039Z" fill="#EDC951"></path><path fill-rule="evenodd" clip-rule="evenodd" d="M116.5 120.044H111.5C110.671 120.044 110 119.371 110 118.543V115.04H68V118.543C68 119.371 67.329 120.044 66.5 120.044H61.5C60.671 120.044 60 119.371 60 118.543V81.5171C60 80.6881 60.671 80.0161 61.5 80.0161H116.5C117.329 80.0161 118 80.6881 118 81.5171V118.543C118 119.371 117.329 120.044 116.5 120.044ZM113 117.042H115V83.0181H63V117.042H65V113.539C65 112.71 65.671 112.038 66.5 112.038H111.5C112.329 112.038 113 112.71 113 113.539V117.042Z" fill="#100227"></path><path fill-rule="evenodd" clip-rule="evenodd" d="M116 99.0289H62C61.171 99.0289 60.5 98.3569 60.5 97.5279C60.5 96.6989 61.171 96.0269 62 96.0269H116C116.829 96.0269 117.5 96.6989 117.5 97.5279C117.5 98.3569 116.829 99.0289 116 99.0289Z" fill="#100227"></path><path fill-rule="evenodd" clip-rule="evenodd" d="M116 115.04H62C61.171 115.04 60.5 114.368 60.5 113.539C60.5 112.71 61.171 112.038 62 112.038H116C116.829 112.038 117.5 112.71 117.5 113.539C117.5 114.368 116.829 115.04 116 115.04Z" fill="#100227"></path><path fill-rule="evenodd" clip-rule="evenodd" d="M89.803 83.1969C86.076 83.1969 83.044 80.1629 83.044 76.4329C83.044 72.7039 86.076 69.6709 89.803 69.6709C93.53 69.6709 96.561 72.7039 96.561 76.4329C96.561 80.1629 93.53 83.1969 89.803 83.1969ZM89.803 72.6729C87.73 72.6729 86.044 74.3599 86.044 76.4329C86.044 78.5069 87.73 80.1949 89.803 80.1949C91.875 80.1949 93.562 78.5069 93.562 76.4329C93.562 74.3599 91.875 72.6729 89.803 72.6729Z" fill="#100227"></path><path fill-rule="evenodd" clip-rule="evenodd" d="M98.702 71.01C98.695 71.009 98.688 71.009 98.682 71.01H80.234C79.742 71.01 79.281 70.768 79 70.363C78.72 69.958 78.657 69.441 78.83 68.98L82.968 57.972C83.187 57.387 83.747 57 84.372 57H94.544C95.168 57 95.728 57.387 95.948 57.972L100.005 68.764C100.13 68.984 100.202 69.238 100.202 69.509C100.202 70.337 99.531 71.01 98.702 71.01ZM82.401 68.008H96.515L93.505 60.002H85.41L82.401 68.008Z" fill="#100227"></path><path fill-rule="evenodd" clip-rule="evenodd" d="M111 107.035H107C106.171 107.035 105.5 106.362 105.5 105.534C105.5 104.705 106.171 104.033 107 104.033H111C111.829 104.033 112.5 104.705 112.5 105.534C112.5 106.362 111.829 107.035 111 107.035Z" fill="#100227"></path><path fill-rule="evenodd" clip-rule="evenodd" d="M70 107.035H66C65.171 107.035 64.5 106.362 64.5 105.534C64.5 104.705 65.171 104.033 66 104.033H70C70.829 104.033 71.5 104.705 71.5 105.534C71.5 106.362 70.829 107.035 70 107.035Z" fill="#100227"></path><path fill-rule="evenodd" clip-rule="evenodd" d="M111 92.024H107C106.171 92.024 105.5 91.352 105.5 90.523C105.5 89.695 106.171 89.022 107 89.022H111C111.829 89.022 112.5 89.695 112.5 90.523C112.5 91.352 111.829 92.024 111 92.024Z" fill="#100227"></path><path fill-rule="evenodd" clip-rule="evenodd" d="M70 92.024H66C65.171 92.024 64.5 91.352 64.5 90.523C64.5 89.695 65.171 89.022 66 89.022H70C70.829 89.022 71.5 89.695 71.5 90.523C71.5 91.352 70.829 92.024 70 92.024Z" fill="#100227"></path></svg> 