<?xml version="1.0" encoding="UTF-8"?> <svg xmlns="http://www.w3.org/2000/svg" width="180" height="180" viewBox="0 0 180 180" fill="none"><rect width="180" height="180" rx="90" fill="white"></rect><path fill-rule="evenodd" clip-rule="evenodd" d="M110.424 86.358C108.599 83.77 107.229 81.533 106.204 79.611C102.268 72.226 103.424 69.5 103.424 69.5C103.424 69.5 99.1139 81.081 99.1139 85.693C99.1139 88.143 99.4029 89.763 100.195 91.867C100.941 93.857 103.272 95.311 106.035 95.311C109.4 95.311 112.128 93.158 112.128 90.502C112.128 89.372 111.195 87.474 110.424 86.358Z" fill="#88FCE6"></path><path fill-rule="evenodd" clip-rule="evenodd" d="M102.426 114.811C98.4159 114.811 93.9449 113.54 89.1689 110.119C72.9339 98.4918 62.0359 109.468 61.5799 109.941C61.0039 110.538 60.0549 110.554 59.4589 109.979C58.8619 109.404 58.8459 108.455 59.4199 107.858C59.5499 107.724 72.6039 94.5628 90.9149 107.68C106.984 119.187 118.787 103.151 119.282 102.463C119.767 101.79 120.704 101.638 121.375 102.12C122.048 102.603 122.201 103.541 121.718 104.213C121.615 104.356 113.926 114.809 102.426 114.811Z" fill="#100227"></path><path fill-rule="evenodd" clip-rule="evenodd" d="M102.426 105.366C98.4159 105.366 93.9449 104.096 89.1689 100.675C72.9339 89.0482 62.0359 100.024 61.5799 100.497C61.0039 101.094 60.0549 101.11 59.4589 100.535C58.8619 99.9602 58.8459 99.0102 59.4199 98.4142C59.5499 98.2792 72.6039 85.1192 90.9149 98.2362C106.984 109.744 118.787 93.7072 119.282 93.0192C119.767 92.3452 120.704 92.1942 121.375 92.6762C122.048 93.1592 122.201 94.0962 121.718 94.7692C121.615 94.9122 113.926 105.365 102.426 105.366Z" fill="#100227"></path><path fill-rule="evenodd" clip-rule="evenodd" d="M111.824 93.4228C111.293 93.4228 110.777 93.1398 110.506 92.6398C110.109 91.9118 110.379 91.0008 111.107 90.6048C116.177 87.8468 119.251 83.6158 119.281 83.5738C119.767 82.8998 120.703 82.7478 121.375 83.2308C122.048 83.7138 122.201 84.6508 121.719 85.3238C121.577 85.5198 118.207 90.1568 112.54 93.2398C112.313 93.3638 112.067 93.4228 111.824 93.4228Z" fill="#100227"></path><path fill-rule="evenodd" clip-rule="evenodd" d="M91.3628 92.406C91.0868 92.406 90.8078 92.33 90.5578 92.17C90.0978 91.877 89.6338 91.564 89.1678 91.23C73.0128 79.658 62.0348 90.584 61.5768 91.055C60.9978 91.648 60.0498 91.661 59.4568 91.086C58.8628 90.51 58.8468 89.564 59.4198 88.97C59.5498 88.835 72.6038 75.674 90.9148 88.791C91.3368 89.093 91.7558 89.376 92.1708 89.641C92.8688 90.086 93.0738 91.014 92.6288 91.712C92.3428 92.161 91.8578 92.406 91.3628 92.406Z" fill="#100227"></path><path fill-rule="evenodd" clip-rule="evenodd" d="M102.035 93.811C98.6929 93.811 95.7809 92.036 94.7909 89.394C93.9339 87.115 93.6139 85.298 93.6139 82.693C93.6139 78.02 97.5549 67.228 98.0039 66.013C98.0039 66.012 98.0049 66.009 98.0069 66.005C98.0069 66.003 98.0079 66.002 98.0089 66C98.0119 65.99 98.0169 65.978 98.0169 65.977H98.0179C98.0259 65.953 98.0349 65.93 98.0419 65.915C98.3589 65.164 99.4469 64.806 100.205 65.106C100.963 65.407 101.287 66.259 101.287 67.023C101.287 67.023 101.287 67.024 101.287 67.025C101.287 67.143 100.427 69.657 103.757 75.905C104.835 77.927 106.108 80.144 107.764 82.494C108.453 83.491 109.686 85.803 109.686 87.502C109.686 90.98 106.222 93.811 102.035 93.811ZM98.8479 72.843C97.6879 76.539 96.6139 80.582 96.6139 82.693C96.6139 84.957 96.8629 86.382 97.5999 88.339C98.1449 89.795 99.9689 90.811 102.035 90.811C104.525 90.811 106.628 89.295 106.628 87.502C106.628 86.868 105.942 85.3 105.19 84.211C103.469 81.772 102.017 79.448 100.88 77.316C99.9719 75.611 99.3159 74.127 98.8479 72.843Z" fill="#100227"></path></svg> 