<?xml version="1.0" encoding="UTF-8"?> <svg xmlns="http://www.w3.org/2000/svg" width="180" height="180" viewBox="0 0 180 180" fill="none"><rect width="180" height="180" rx="90" fill="white"></rect><path fill-rule="evenodd" clip-rule="evenodd" d="M69.4514 97.5564H74.4174C74.6464 97.5564 75.7714 97.2154 78.3244 94.6614C83.3434 89.6414 88.7114 89.8414 95.2124 95.0414L95.5134 95.3404L95.6094 95.7444C95.9234 96.9774 96.4884 98.4984 96.9404 99.1584C98.1784 99.1624 99.4524 99.0494 99.8544 98.8664C100.173 98.1554 100.163 95.2474 100.155 93.1054C100.143 89.6494 100.128 85.7344 100.848 82.7164C101.048 81.8744 101.258 81.0784 101.453 80.3364C101.874 78.7364 102.511 76.3204 102.167 75.9284C102.162 75.9274 101.813 75.6664 100.155 76.0824C94.8424 77.4124 89.6014 78.2834 87.2354 75.7004C85.9774 74.3254 85.8184 72.2414 86.7634 69.5104C89.7624 60.8404 94.8974 62.3244 97.6534 63.1224C98.3134 63.3134 98.9384 63.4934 99.3274 63.4934C102.384 63.4934 107.953 65.0274 110.769 69.2514C111.257 69.9804 111.757 70.6364 112.24 71.2674C114.385 74.0684 116.409 76.7124 117.505 85.4764C117.791 87.7624 118.077 89.8014 118.336 91.6434C119.258 98.2144 119.867 102.556 118.789 106.868C117.804 110.808 118.094 112.186 118.158 112.415L118.852 113.428L117.659 114.014C117.576 114.056 109.207 118.172 101.36 120.788C98.0904 121.88 94.0424 122.496 89.7764 122.496C82.6804 122.496 74.9784 120.788 69.2334 116.702L69.0174 116.502L66.5004 113.495" fill="#E56A77"></path><path fill-rule="evenodd" clip-rule="evenodd" d="M85.7764 120.996C77.4734 120.996 69.8694 118.84 64.3644 114.925C64.3104 114.887 64.2604 114.846 64.2124 114.802L63.9964 114.601C63.9364 114.545 63.8804 114.485 63.8304 114.419L61.3134 111.162C60.8064 110.507 60.9274 109.565 61.5834 109.058C62.2394 108.552 63.1804 108.673 63.6874 109.327L66.1804 112.535C71.1084 116.007 78.2424 117.996 85.7764 117.996C89.7884 117.996 93.7344 117.417 96.8864 116.366C103.814 114.055 111.195 110.542 112.711 109.808C112.522 109.125 112.358 107.405 113.334 103.504C114.342 99.4734 113.748 95.2484 112.85 88.8524C112.591 87.0034 112.303 84.9564 112.017 82.6624C110.972 74.3034 109.154 71.9294 107.05 69.1804C106.606 68.6014 106.055 67.8814 105.523 67.0864C103.049 63.3754 97.9564 61.9934 95.3274 61.9934C94.7224 61.9934 94.0004 61.7844 93.2364 61.5634C90.4834 60.7654 86.7154 59.6744 84.1804 67.0004C83.4294 69.1724 83.4834 70.7484 84.3424 71.6874C86.1954 73.7094 91.4344 72.7174 95.7914 71.6274C97.3054 71.2474 98.3084 71.2544 98.9504 71.6484C99.0784 71.7274 99.1964 71.8254 99.2954 71.9384C100.05 72.7994 99.8814 74.0054 98.9074 77.7054C98.7114 78.4494 98.5044 79.2324 98.3074 80.0614C97.6304 82.9034 97.6434 86.7184 97.6554 90.0844C97.6694 93.8824 97.6124 95.6054 97.2224 96.4734C97.0734 96.8054 96.8084 97.0724 96.4764 97.2234C95.6584 97.5974 93.9124 97.6434 92.9344 97.6424C92.4414 97.6404 91.9814 97.3964 91.7024 96.9904C91.0974 96.1074 90.4764 94.3464 90.1564 93.0824L90.1314 92.9734C84.1664 88.2554 79.7494 88.1074 75.3854 92.4724C73.3384 94.5184 71.6674 95.5564 70.4174 95.5564H65.4514C64.6234 95.5564 63.9514 94.8854 63.9514 94.0564C63.9514 93.2284 64.6234 92.5564 65.4514 92.5564H70.4144C70.3824 92.5544 71.2644 92.3504 73.2634 90.3504C78.7644 84.8494 84.9414 84.9794 92.1494 90.7444C92.2274 90.8074 92.2994 90.8784 92.3644 90.9554L92.6654 91.3174C92.8204 91.5024 92.9274 91.7214 92.9784 91.9564L93.0744 92.3904C93.2804 93.1974 93.5764 94.0354 93.8344 94.6264C94.1174 94.6134 94.3684 94.5964 94.5784 94.5764C94.6674 93.4254 94.6594 91.2694 94.6554 90.1064C94.6424 86.5614 94.6284 82.5554 95.3894 79.3664C95.5924 78.5134 95.8044 77.7064 96.0034 76.9524C96.1534 76.3844 96.4244 75.3524 96.6004 74.5164C96.5744 74.5234 96.5474 74.5304 96.5204 74.5364C90.7584 75.9784 85.0274 76.8774 82.1294 73.7134C80.4704 71.8994 80.2064 69.3114 81.3464 66.0194C84.8114 56.0004 91.3004 57.8804 94.0704 58.6814C94.4644 58.7954 95.1244 58.9864 95.3314 58.9934C98.2354 58.9934 104.629 60.3364 108.017 65.4194C108.495 66.1334 109.014 66.8114 109.431 67.3554C111.603 70.1924 113.847 73.1244 114.993 82.2904C115.278 84.5684 115.563 86.5994 115.821 88.4354C116.768 95.1794 117.393 99.6354 116.244 104.231C115.539 107.05 115.546 108.39 115.583 108.841L116.089 109.58C116.335 109.939 116.413 110.387 116.303 110.807C116.193 111.229 115.905 111.581 115.514 111.773L114.322 112.361C114.249 112.397 105.838 116.543 97.8354 119.211C94.3364 120.379 90.1654 120.996 85.7764 120.996Z" fill="#100227"></path></svg> 