 <svg width="30" height="30" viewBox="0 0 30 30" fill="none" xmlns="http://www.w3.org/2000/svg">
                <path fill-rule="evenodd" clip-rule="evenodd" d="M17.0685 11.8067C16.4647 11.8067 15.8899 11.5842 15.4425 11.1981C14.9925 11.5842 14.4157 11.8067 13.8105 11.8067C12.4164 11.8067 11.2819 10.6701 11.2819 9.27295C11.2819 8.96781 11.3368 8.66952 11.4418 8.39009C10.5512 7.99238 9.9418 7.10266 9.9418 6.05909C9.9418 4.64866 11.0865 3.50138 12.4948 3.50138C12.6101 3.50138 12.7249 3.50995 12.8385 3.5258C13.1497 2.47966 14.1187 1.71423 15.2625 1.71423C16.4047 1.71423 17.3719 2.47623 17.6848 3.5198C17.7825 3.5078 17.8802 3.50138 17.9788 3.50138C19.3537 3.50138 20.4718 4.62166 20.4718 5.99909C20.4718 6.88323 20.0004 7.67523 19.2838 8.11795C19.4754 8.47495 19.5782 8.87609 19.5782 9.29223C19.5782 10.6782 18.4524 11.8067 17.0685 11.8067ZM15.4451 9.70452C15.4459 9.70452 15.4464 9.70452 15.4472 9.70452C15.6799 9.70452 15.8938 9.75681 16.0069 9.95995C16.2251 10.3521 16.6318 10.5578 17.0685 10.5578C17.7435 10.5578 18.2925 9.98823 18.2925 9.31066C18.2925 8.93909 18.1207 8.58038 17.8207 8.34295C17.6184 8.18266 17.5314 7.91223 17.5999 7.66323C17.6685 7.41423 17.8798 7.22823 18.1357 7.19438C18.7344 7.11552 19.1861 6.60166 19.1861 5.99995C19.1861 5.33223 18.6444 4.78795 17.9788 4.78795C17.7967 4.78795 17.6124 4.83466 17.4315 4.92809C17.2254 5.03438 16.9777 5.02109 16.7835 4.89381C16.5898 4.76652 16.4797 4.54409 16.4959 4.31266C16.4977 4.28138 16.5015 4.25095 16.5058 4.22052C16.5054 3.55923 15.9478 2.99995 15.2625 2.99995C14.5772 2.99995 14.0201 3.55923 14.0201 4.24709C14.0257 4.26938 14.0295 4.30195 14.0317 4.33495C14.0475 4.56852 13.9348 4.7918 13.7385 4.91823C13.5414 5.04466 13.2919 5.05495 13.0862 4.94438C12.8921 4.84023 12.6928 4.78709 12.4948 4.78709C11.7958 4.78709 11.2275 5.35795 11.2275 6.05909C11.2275 6.7538 11.7709 7.31052 12.4652 7.3268C12.7198 7.33323 12.9465 7.48838 13.0442 7.72366C13.1415 7.95852 13.0909 8.22938 12.9152 8.41366C12.6915 8.64809 12.5681 8.95366 12.5681 9.27295C12.5681 9.9608 13.1252 10.5209 13.8105 10.5209C14.2579 10.5209 14.6595 10.3564 14.8858 9.95652C14.9994 9.75466 15.2132 9.70452 15.4451 9.70452Z" fill="#C4C4C4"></path>
                <path fill-rule="evenodd" clip-rule="evenodd" d="M17.2836 16.5377H17.2832C15.9366 16.5373 15.1875 15.3887 14.9573 14.7098C14.8797 14.4801 14.9372 14.2268 15.1065 14.0537C15.8989 13.2437 16.888 12.3694 16.9292 12.3325C17.701 11.682 18.4425 11.3567 19.1445 11.3567C21.2612 11.3567 22.066 14.1805 22.216 14.7955C22.2473 14.871 22.2645 14.9537 22.2645 15.0403C22.2645 15.1285 22.2469 15.2121 22.2147 15.2884C22.1415 15.4945 21.9769 15.6638 21.7575 15.7101C21.4103 15.783 21.0812 15.603 21.0075 15.2558C21.0027 15.2558 20.9402 15.1821 20.7366 15.1821C20.5197 15.1821 20.0235 15.2725 19.1342 15.8773C18.4896 16.3153 17.8669 16.5377 17.2836 16.5377ZM16.3429 14.6353C16.5139 14.91 16.819 15.252 17.2836 15.252C17.6042 15.252 17.9835 15.1045 18.4112 14.8135C19.2289 14.2581 19.9266 13.9594 20.5373 13.9054C20.221 13.257 19.7517 12.6424 19.1445 12.6424C18.754 12.6424 18.2912 12.8657 17.7692 13.3058C17.7692 13.3058 17.0329 13.9577 16.3429 14.6353Z" fill="#C4C4C4"></path>
                <path fill-rule="evenodd" clip-rule="evenodd" d="M15.1982 9.06597C14.1015 9.06597 13.2092 8.17197 13.2092 7.07312C13.2092 5.97426 14.1015 5.08069 15.1982 5.08069C16.2954 5.08069 17.1876 5.97426 17.1876 7.07312C17.1876 8.17197 16.2954 9.06597 15.1982 9.06597ZM15.1982 6.3664C14.8104 6.3664 14.4949 6.68312 14.4949 7.07312C14.4949 7.46312 14.8104 7.78026 15.1982 7.78026C15.5861 7.78026 15.9019 7.46312 15.9019 7.07312C15.9019 6.68312 15.5861 6.3664 15.1982 6.3664Z" fill="#C4C4C4"></path>
                <path fill-rule="evenodd" clip-rule="evenodd" d="M16.2281 17.8508C16.0451 17.8508 15.8638 17.7733 15.7365 17.6224C13.4651 14.9348 14.7701 10.2218 14.8271 10.0226C14.9239 9.68142 15.2775 9.48299 15.6204 9.57985C15.9615 9.6767 16.1599 10.032 16.0639 10.3736C16.0515 10.4156 14.8905 14.6293 16.7184 16.7927C16.9477 17.064 16.9134 17.4694 16.6421 17.6991C16.5217 17.8007 16.3742 17.8508 16.2281 17.8508Z" fill="#C4C4C4"></path>
                <path fill-rule="evenodd" clip-rule="evenodd" d="M18.2801 28.5616H12.0371C10.8152 28.5616 9.69751 27.5485 9.49308 26.2551L8.17651 19.7451C8.04794 18.9346 8.29265 18.0934 8.82665 17.4681C9.31865 16.8921 10.0078 16.5616 10.7162 16.5616H19.6005C20.3038 16.5616 20.9899 16.8921 21.4815 17.4681C22.0219 18.1011 22.2701 18.9509 22.1445 19.7408L20.8194 26.3695C20.6235 27.6085 19.5298 28.5616 18.2801 28.5616ZM10.7162 17.8474C10.2619 17.8474 9.94994 18.1332 9.80422 18.3034C9.51151 18.6462 9.37565 19.1001 9.44208 19.5171L10.7582 26.0275C10.8697 26.7278 11.4414 27.2759 12.0371 27.2759H18.2801C18.9041 27.2759 19.4518 26.7891 19.5542 26.1428L20.8794 19.5141C20.9411 19.1224 20.7988 18.6488 20.5039 18.3029C20.3582 18.1332 20.0479 17.8474 19.6005 17.8474H10.7162Z" fill="#C4C4C4"></path>
                <path fill-rule="evenodd" clip-rule="evenodd" d="M20.8454 21.2759H9.27401C8.91915 21.2759 8.63115 20.9884 8.63115 20.6331C8.63115 20.2782 8.91915 19.9902 9.27401 19.9902H20.8454C21.2003 19.9902 21.4883 20.2782 21.4883 20.6331C21.4883 20.9884 21.2003 21.2759 20.8454 21.2759Z" fill="#C4C4C4"></path>
            </svg>