<svg width="30" height="30" viewBox="0 0 30 30" fill="none" xmlns="http://www.w3.org/2000/svg">
                <path fill-rule="evenodd" clip-rule="evenodd" d="M13.6182 28.7128C10.0602 28.7128 6.8009 27.7888 4.44162 26.1109C4.4189 26.0946 4.39747 26.0771 4.3769 26.0582L4.28433 25.9721C4.25862 25.9481 4.23462 25.9224 4.21319 25.8941L3.13447 24.4982C2.91719 24.2175 2.96862 23.8138 3.24976 23.5965C3.52962 23.3796 3.93462 23.4311 4.15147 23.7118L5.22076 25.0866C7.3319 26.5746 10.3898 27.4271 13.6182 27.4271C15.338 27.4271 17.0288 27.1789 18.3796 26.7285C21.3642 25.7329 24.5146 24.2316 25.1618 23.9184C25.0812 23.6256 25.0105 22.8872 25.4292 21.2158C25.8608 19.4878 25.6066 17.6775 25.2218 14.9368C25.1103 14.1444 24.9878 13.2671 24.8648 12.2839C24.4169 8.70235 23.6382 7.68492 22.7369 6.50678C22.5136 6.21621 22.2963 5.92949 22.0812 5.60849C21.0213 4.01806 18.8386 3.42578 17.7119 3.42578C17.4535 3.42578 17.1578 3.34049 16.8153 3.24149C15.6359 2.89992 14.0206 2.43192 12.935 5.57164C12.6128 6.50249 12.6359 7.17792 13.004 7.58035C13.7978 8.44692 16.0439 8.02178 17.9108 7.55464C18.5626 7.39092 18.9946 7.39478 19.2693 7.56664C19.322 7.59964 19.3705 7.64078 19.4116 7.68749C19.736 8.05692 19.6636 8.57378 19.2462 10.1595L18.6128 10.0412L19.2342 10.2049C19.1545 10.5066 19.07 10.8289 18.989 11.1692C18.6985 12.3881 18.7045 14.0244 18.7096 15.4678C18.7156 17.0925 18.6912 17.8305 18.524 18.2029C18.4602 18.3452 18.3466 18.4592 18.2048 18.5244C17.8542 18.6842 17.1132 18.7035 16.6863 18.7039C16.475 18.7031 16.2775 18.5985 16.1583 18.4245C15.8999 18.0474 15.6338 17.2922 15.4953 16.7505L15.4846 16.7025C12.9278 14.6805 11.0348 14.6184 9.16533 16.4882C8.28804 17.3651 7.57147 17.8099 7.03619 17.8099H4.9079C4.55304 17.8099 4.26504 17.5224 4.26504 17.1671C4.26504 16.8122 4.55304 16.5242 4.9079 16.5242H7.03533C7.02162 16.5234 7.39919 16.4355 8.25633 15.5788C10.6135 13.2208 13.2616 13.2769 16.3495 15.7476C16.3842 15.7751 16.415 15.8055 16.4425 15.8389L16.5715 15.9941C16.637 16.0729 16.6829 16.1668 16.7052 16.2671L16.7459 16.4531C16.8342 16.7994 16.9615 17.1581 17.072 17.4114C17.1933 17.4058 17.3009 17.3985 17.3909 17.3899C17.429 16.8966 17.4256 15.9726 17.4239 15.4742C17.4188 13.9571 17.4123 12.2389 17.7385 10.8714C17.8216 10.5208 17.909 10.1891 17.9909 9.87792L18.0029 9.83249C18.0659 9.59164 18.182 9.15021 18.2575 8.79321C18.2459 8.79578 18.2352 8.79878 18.2236 8.80135C15.7533 9.41978 13.2972 9.80421 12.0556 8.44821C11.3446 7.67121 11.2315 6.56164 11.7196 5.15121C13.205 0.857778 15.9852 1.66264 17.1728 2.00635C17.3528 2.05864 17.6253 2.13706 17.7136 2.14006C18.9578 2.14006 21.698 2.71564 23.1505 4.89406C23.3438 5.18249 23.5392 5.44049 23.7565 5.72335C24.6878 6.94092 25.6495 8.19749 26.1402 12.1245C26.2623 13.1008 26.3845 13.9712 26.4946 14.7581C26.9009 17.6479 27.1692 19.5568 26.6763 21.5278C26.3742 22.7346 26.3772 23.3094 26.393 23.5035L26.6099 23.8198C26.7153 23.9736 26.7488 24.1661 26.7016 24.3461C26.654 24.5265 26.5306 24.6778 26.3639 24.7601L25.8526 25.0121C25.823 25.0266 22.217 26.8039 18.7863 27.9482C17.2868 28.4484 15.4996 28.7128 13.6182 28.7128Z" fill="#C4C4C4"></path> </svg>