<svg width="30" height="30" viewBox="0 0 30 30" fill="none" xmlns="http://www.w3.org/2000/svg"> <path fill-rule="evenodd" clip-rule="evenodd" d="M19.5261 28.6306C18.4384 28.6306 17.4163 28.2068 16.6474 27.4375L2.47843 13.2586C1.70915 12.4894 1.28572 11.4659 1.28572 10.3778C1.28572 9.28922 1.70915 8.26622 2.47843 7.4965L7.99458 1.9765C8.43943 1.53122 9.03129 1.28564 9.66129 1.28564C10.2913 1.28564 10.8827 1.53122 11.328 1.9765L27.921 18.5815C28.8399 19.5012 28.8399 20.9974 27.921 21.9175L22.4049 27.4375C21.636 28.2068 20.6139 28.6306 19.5261 28.6306ZM9.66129 2.57222C9.37501 2.57222 9.10629 2.68407 8.90358 2.88636L3.38743 8.40636C2.86158 8.93307 2.57143 9.63293 2.57143 10.3778C2.57143 11.1222 2.86158 11.8221 3.38743 12.3488L17.5564 26.5276C18.0823 27.0544 18.7821 27.3441 19.5261 27.3441C20.2701 27.3441 20.97 27.0544 21.4959 26.5276L27.012 21.0076C27.4299 20.5898 27.4299 19.9092 27.012 19.4914L10.4186 2.88636C10.2163 2.68407 9.94758 2.57222 9.66129 2.57222Z" fill="#C4C4C4"></path> <path fill-rule="evenodd" clip-rule="evenodd" d="M4.22188 14.5992C4.05731 14.5992 3.89274 14.5366 3.76717 14.411C3.51603 14.1594 3.51603 13.7523 3.76717 13.5012L7.6106 9.65515C7.86174 9.40401 8.26845 9.40401 8.5196 9.65515C8.77074 9.9063 8.77074 10.3139 8.5196 10.565L4.67617 14.411C4.5506 14.5366 4.38603 14.5992 4.22188 14.5992Z" fill="#C4C4C4"></path> <path fill-rule="evenodd" clip-rule="evenodd" d="M6.31798 16.6971C6.15341 16.6971 5.98884 16.6341 5.8637 16.5085C5.61255 16.2574 5.61255 15.8502 5.8637 15.5991L7.95984 13.5012C8.21098 13.2501 8.6177 13.2501 8.86884 13.5012C9.11998 13.7524 9.11998 14.1595 8.86884 14.4111L6.7727 16.5085C6.64712 16.6341 6.48255 16.6971 6.31798 16.6971Z" fill="#C4C4C4"></path> <path fill-rule="evenodd" clip-rule="evenodd" d="M8.76389 19.1447C8.59932 19.1447 8.43517 19.0817 8.3096 18.9561C8.05846 18.705 8.05846 18.2978 8.3096 18.0463L12.1522 14.2007C12.4033 13.9491 12.8105 13.9491 13.0612 14.2003C13.3123 14.4514 13.3123 14.859 13.0612 15.1101L9.2186 18.9561C9.09303 19.0817 8.92846 19.1447 8.76389 19.1447Z" fill="#C4C4C4"></path> <path fill-rule="evenodd" clip-rule="evenodd" d="M10.86 21.2426C10.6954 21.2426 10.5309 21.1795 10.4053 21.054C10.1542 20.8028 10.1542 20.3953 10.4053 20.1441L12.5019 18.0463C12.753 17.7951 13.1597 17.7951 13.4109 18.0463C13.662 18.2978 13.662 18.705 13.4109 18.9561L11.3143 21.054C11.1887 21.1795 11.0246 21.2426 10.86 21.2426Z" fill="#C4C4C4"></path> <path fill-rule="evenodd" clip-rule="evenodd" d="M13.3059 23.6896C13.1413 23.6896 12.9767 23.627 12.8511 23.5015C12.6 23.2503 12.6 22.8428 12.8511 22.5916L16.6946 18.7456C16.9457 18.4945 17.3524 18.4945 17.6036 18.7456C17.8547 18.9968 17.8547 19.4043 17.6036 19.6555L13.7601 23.5015C13.6346 23.627 13.4704 23.6896 13.3059 23.6896Z" fill="#C4C4C4"></path> <path fill-rule="evenodd" clip-rule="evenodd" d="M15.402 25.7875C15.2379 25.7875 15.0733 25.725 14.9477 25.5994C14.6966 25.3478 14.6966 24.9407 14.9477 24.6891L17.0439 22.5917C17.295 22.3405 17.7022 22.3405 17.9533 22.5917C18.204 22.8428 18.204 23.2504 17.9533 23.5015L15.8567 25.5994C15.7312 25.725 15.5666 25.7875 15.402 25.7875Z" fill="#C4C4C4"></path> </svg>