<svg width="330" height="140" viewBox="0 0 330 140" fill="none" xmlns="http://www.w3.org/2000/svg">
<rect width="330" height="140" rx="5" fill="#F2F8F6"/>
<path fill-rule="evenodd" clip-rule="evenodd" d="M132.714 93.8157C129.62 93.3914 126.429 90.2871 126.429 87.0729V50.0071C126.429 46.8486 128.987 44.2886 132.143 44.2886H191.559C194.234 44.2886 196.624 45.1229 197.532 47.6414L202.227 60.2529C202.744 61.6886 203.762 62.6786 205.09 63.4257L209.174 65.7671C211.176 66.8914 212.143 68.9043 212.143 71.2014V88.6057C212.143 91.7643 209.584 94.3243 206.429 94.3243H203.572" fill="#99746A"/>
<path fill-rule="evenodd" clip-rule="evenodd" d="M200.227 94.0886C200.227 97.7158 197.289 100.656 193.664 100.656C190.039 100.656 187.102 97.7158 187.102 94.0886C187.102 90.4615 190.039 87.5215 193.664 87.5215C197.289 87.5215 200.227 90.4615 200.227 94.0886Z" fill="#E56A77"/>
<path fill-rule="evenodd" clip-rule="evenodd" d="M144.672 94.0886C144.672 97.7158 141.733 100.656 138.109 100.656C134.484 100.656 131.546 97.7158 131.546 94.0886C131.546 90.4615 134.484 87.5215 138.109 87.5215C141.733 87.5215 144.672 90.4615 144.672 94.0886Z" fill="#E56A77"/>
<path fill-rule="evenodd" clip-rule="evenodd" d="M209.285 81.4585H182.143V64.3027H197.328C203.64 64.3027 209.285 68.7613 209.285 75.077V81.4585Z" fill="#EDC951"/>
<path fill-rule="evenodd" clip-rule="evenodd" d="M180.714 94.3242H140.714C139.53 94.3242 138.571 93.3642 138.571 92.1799C138.571 90.9956 139.53 90.0356 140.714 90.0356H180.714C181.898 90.0356 182.857 90.9956 182.857 92.1799C182.857 93.3642 181.898 94.3242 180.714 94.3242Z" fill="#100227"/>
<path fill-rule="evenodd" clip-rule="evenodd" d="M201.429 94.3243H197.857C196.673 94.3243 195.714 93.3643 195.714 92.18C195.714 90.9957 196.673 90.0357 197.857 90.0357H201.429C203.397 90.0357 205 88.4314 205 86.4614V69.7714C205 68.32 204.144 66.9371 202.767 66.1629L198.363 63.7957C196.486 62.7414 195.161 61.2186 194.497 59.37L189.806 46.5943C189.056 44.5129 186.786 44.2886 185.844 44.2886H127.143C125.174 44.2886 123.571 45.8929 123.571 47.8629V85.6429C123.571 87.8586 125.68 89.6343 127.649 89.9043C128.821 90.0657 129.641 91.1471 129.481 92.3214C129.32 93.4943 128.237 94.3157 127.067 94.1543C122.776 93.5657 119.286 89.7486 119.286 85.6429V47.8629C119.286 43.5271 122.81 40 127.143 40H185.844C189.69 40 192.676 41.9171 193.833 45.1286L198.524 57.9043C198.844 58.7929 199.483 59.5071 200.426 60.0371L204.83 62.4043C207.591 63.9557 209.286 66.7714 209.286 69.7714V86.4614C209.286 90.7971 205.761 94.3243 201.429 94.3243Z" fill="#100227"/>
<path fill-rule="evenodd" clip-rule="evenodd" d="M189.379 101.372C184.579 101.372 180.673 97.463 180.673 92.6587C180.673 87.8558 184.579 83.9473 189.379 83.9473C194.179 83.9473 198.084 87.8558 198.084 92.6587C198.084 97.463 194.179 101.372 189.379 101.372ZM189.379 88.2358C186.941 88.2358 184.959 90.2201 184.959 92.6587C184.959 95.0987 186.941 97.083 189.379 97.083C191.816 97.083 193.799 95.0987 193.799 92.6587C193.799 90.2201 191.816 88.2358 189.379 88.2358Z" fill="#100227"/>
<path fill-rule="evenodd" clip-rule="evenodd" d="M133.823 101.372C129.021 101.372 125.116 97.463 125.116 92.6587C125.116 87.8558 129.021 83.9473 133.823 83.9473C138.623 83.9473 142.529 87.8558 142.529 92.6587C142.529 97.463 138.623 101.372 133.823 101.372ZM133.823 88.2358C131.386 88.2358 129.403 90.2201 129.403 92.6587C129.403 95.0987 131.386 97.083 133.823 97.083C136.26 97.083 138.243 95.0987 138.243 92.6587C138.243 90.2201 136.26 88.2358 133.823 88.2358Z" fill="#100227"/>
<path fill-rule="evenodd" clip-rule="evenodd" d="M177.143 80.7429C175.959 80.7429 175 79.7829 175 78.5986V42.8586C175 41.6744 175.959 40.7144 177.143 40.7144C178.327 40.7144 179.286 41.6744 179.286 42.8586V78.5986C179.286 79.7829 178.327 80.7429 177.143 80.7429Z" fill="#100227"/>
<path fill-rule="evenodd" clip-rule="evenodd" d="M206.429 81.4585H122.143C120.959 81.4585 120 80.4985 120 79.3142C120 78.1285 120.959 77.1685 122.143 77.1685H206.429C207.613 77.1685 208.571 78.1285 208.571 79.3142C208.571 80.4985 207.613 81.4585 206.429 81.4585Z" fill="#100227"/>
<path fill-rule="evenodd" clip-rule="evenodd" d="M199.286 64.3027H177.857C176.673 64.3027 175.714 63.3427 175.714 62.1584C175.714 60.9742 176.673 60.0142 177.857 60.0142H199.286C200.47 60.0142 201.429 60.9742 201.429 62.1584C201.429 63.3427 200.47 64.3027 199.286 64.3027Z" fill="#100227"/>
</svg>
