<svg width="330" height="140" viewBox="0 0 330 140" fill="none" xmlns="http://www.w3.org/2000/svg">
<rect width="330" height="140" rx="5" fill="#F2F8F6"/>
<path fill-rule="evenodd" clip-rule="evenodd" d="M175.693 47.5456C176.217 46.0599 177.221 43.7641 177.221 42.097C177.221 34.2341 170.853 27.8599 162.996 27.8599C155.139 27.8599 148.769 34.2341 148.769 42.097C148.769 43.7641 149.771 46.0599 150.297 47.5456L161.461 69.8527C162.086 71.0984 163.863 71.0999 164.487 69.8541L175.693 47.5456Z" fill="#E56A77"/>
<path fill-rule="evenodd" clip-rule="evenodd" d="M166.07 35.3599C168.663 36.5341 170.467 39.1456 170.467 42.1784C170.467 46.3084 167.121 49.6556 162.996 49.6556C158.867 49.6556 155.521 46.3084 155.521 42.1784C155.521 39.1856 157.28 36.6027 159.819 35.407" fill="#EDC951"/>
<path fill-rule="evenodd" clip-rule="evenodd" d="M208.23 108.003C208.23 111.906 205.069 115.068 201.169 115.068C197.27 115.068 194.109 111.906 194.109 108.003C194.109 104.101 197.27 100.937 201.169 100.937C205.069 100.937 208.23 104.101 208.23 108.003Z" fill="#EDC951"/>
<path fill-rule="evenodd" clip-rule="evenodd" d="M169.762 93.7386C169.762 97.64 166.6 100.804 162.7 100.804C158.802 100.804 155.642 97.64 155.642 93.7386C155.642 89.8357 158.802 86.6729 162.7 86.6729C166.6 86.6729 169.762 89.8357 169.762 93.7386Z" fill="#EDC951"/>
<path fill-rule="evenodd" clip-rule="evenodd" d="M142.693 106.57C142.693 110.472 139.532 113.634 135.632 113.634C131.733 113.634 128.572 110.472 128.572 106.57C128.572 102.667 131.733 99.5044 135.632 99.5044C139.532 99.5044 142.693 102.667 142.693 106.57Z" fill="#EDC951"/>
<path fill-rule="evenodd" clip-rule="evenodd" d="M158.69 71.5028C157.229 71.5014 155.916 70.6899 155.26 69.3828L144.096 47.0771C144.056 46.9971 144.02 46.9156 143.992 46.8314C143.899 46.5699 143.79 46.2814 143.675 45.9742C143.08 44.3899 142.34 42.4156 142.34 40.6671C142.34 31.6342 149.683 24.2856 158.709 24.2856C167.736 24.2856 175.08 31.6342 175.08 40.6671C175.08 42.4128 174.342 44.3799 173.749 45.9628C173.632 46.2728 173.522 46.5642 173.427 46.8299C173.399 46.9156 173.362 46.9985 173.322 47.0785L162.116 69.3871C161.462 70.6928 160.149 71.5028 158.69 71.5028ZM147.986 45.2714L158.69 66.6599L169.433 45.2714C169.525 45.0171 169.627 44.7428 169.736 44.4556C170.183 43.2642 170.793 41.6342 170.793 40.6671C170.793 33.9999 165.373 28.5742 158.709 28.5742C152.046 28.5742 146.626 33.9999 146.626 40.6671C146.626 41.6385 147.239 43.2728 147.687 44.4671C147.795 44.7514 147.895 45.0214 147.986 45.2714Z" fill="#100227"/>
<path fill-rule="evenodd" clip-rule="evenodd" d="M158.709 50.3714C153.408 50.3714 149.093 46.0543 149.093 40.7486C149.093 37.0372 151.263 33.6172 154.62 32.0372C155.696 31.5329 156.969 31.9943 157.472 33.0657C157.976 34.1372 157.516 35.4143 156.446 35.9186C154.583 36.7943 153.379 38.6914 153.379 40.7486C153.379 43.69 155.77 46.0829 158.709 46.0829C161.648 46.0829 164.039 43.69 164.039 40.7486C164.039 38.6557 162.808 36.7472 160.902 35.8843C159.823 35.3972 159.345 34.1272 159.832 33.0472C160.319 31.97 161.585 31.4886 162.668 31.9772C166.103 33.5314 168.325 36.9743 168.325 40.7486C168.325 46.0543 164.01 50.3714 158.709 50.3714Z" fill="#100227"/>
<path fill-rule="evenodd" clip-rule="evenodd" d="M196.883 115.783C191.807 115.783 187.68 111.651 187.68 106.574C187.68 101.496 191.807 97.3643 196.883 97.3643C201.959 97.3643 206.087 101.496 206.087 106.574C206.087 111.651 201.959 115.783 196.883 115.783ZM196.883 101.653C194.172 101.653 191.966 103.86 191.966 106.574C191.966 109.287 194.172 111.494 196.883 111.494C199.596 111.494 201.802 109.287 201.802 106.574C201.802 103.86 199.596 101.653 196.883 101.653Z" fill="#100227"/>
<path fill-rule="evenodd" clip-rule="evenodd" d="M158.414 101.519C153.341 101.519 149.213 97.3872 149.213 92.3086C149.213 87.2301 153.341 83.0986 158.414 83.0986C163.49 83.0986 167.619 87.2301 167.619 92.3086C167.619 97.3872 163.49 101.519 158.414 101.519ZM158.414 87.3872C155.704 87.3872 153.499 89.5958 153.499 92.3086C153.499 95.0215 155.704 97.2301 158.414 97.2301C161.127 97.2301 163.333 95.0215 163.333 92.3086C163.333 89.5958 161.127 87.3872 158.414 87.3872Z" fill="#100227"/>
<path fill-rule="evenodd" clip-rule="evenodd" d="M131.346 114.35C126.272 114.35 122.143 110.219 122.143 105.14C122.143 100.062 126.272 95.9316 131.346 95.9316C136.422 95.9316 140.55 100.062 140.55 105.14C140.55 110.219 136.422 114.35 131.346 114.35ZM131.346 100.22C128.634 100.22 126.429 102.427 126.429 105.14C126.429 107.853 128.634 110.062 131.346 110.062C134.059 110.062 136.264 107.853 136.264 105.14C136.264 102.427 134.059 100.22 131.346 100.22Z" fill="#100227"/>
<path fill-rule="evenodd" clip-rule="evenodd" d="M137.376 103.621C136.577 103.621 135.81 103.173 135.441 102.404C134.93 101.335 135.38 100.055 136.449 99.5426L150.81 92.6497C151.874 92.1383 153.157 92.5869 153.669 93.6569C154.181 94.724 153.73 96.0054 152.663 96.5169L138.3 103.41C138.001 103.554 137.687 103.621 137.376 103.621Z" fill="#100227"/>
<path fill-rule="evenodd" clip-rule="evenodd" d="M190.185 106.482C189.907 106.482 189.626 106.427 189.356 106.313L164.469 95.8401C163.377 95.3816 162.865 94.1244 163.323 93.033C163.782 91.9416 165.037 91.4273 166.129 91.8873L191.016 102.359C192.106 102.819 192.62 104.076 192.162 105.167C191.816 105.987 191.022 106.482 190.185 106.482Z" fill="#100227"/>
<path fill-rule="evenodd" clip-rule="evenodd" d="M158.416 87.7158C158.392 87.7158 158.368 87.7158 158.343 87.7158C157.162 87.7158 156.233 86.5187 156.273 85.3358L156.569 76.4944C156.609 75.3101 157.635 74.3444 158.782 74.383C159.963 74.4215 160.892 75.393 160.852 76.5772L160.556 85.4901C160.517 86.6487 159.566 87.7158 158.416 87.7158Z" fill="#100227"/>
</svg>
