<svg width="330" height="140" viewBox="0 0 330 140" fill="none" xmlns="http://www.w3.org/2000/svg">
<rect width="330" height="140" rx="5" fill="#F2F8F6"/>
<path fill-rule="evenodd" clip-rule="evenodd" d="M205.766 79.5056C205.766 99.6598 189.444 115.998 169.311 115.998C149.177 115.998 132.857 99.6598 132.857 79.5056C132.857 59.3513 149.177 43.0127 169.311 43.0127C189.444 43.0127 205.766 59.3513 205.766 79.5056Z" fill="#FD9366"/>
<path fill-rule="evenodd" clip-rule="evenodd" d="M189.921 79.5055C189.921 90.8997 180.693 100.137 169.311 100.137C157.928 100.137 148.701 90.8997 148.701 79.5055C148.701 68.1112 157.928 58.874 169.311 58.874C180.693 58.874 189.921 68.1112 189.921 79.5055Z" fill="#88FCE6"/>
<path fill-rule="evenodd" clip-rule="evenodd" d="M160.068 30.0068H175.783V42.8768H160.068V30.0068Z" fill="#EDC951"/>
<path fill-rule="evenodd" clip-rule="evenodd" d="M163.597 113.852C142.314 113.852 125 96.5196 125 75.2153C125 53.9096 142.314 36.5781 163.597 36.5781C184.88 36.5781 202.194 53.9096 202.194 75.2153C202.194 96.5196 184.88 113.852 163.597 113.852ZM163.597 40.8681C144.677 40.8681 129.286 56.2753 129.286 75.2153C129.286 94.1538 144.677 109.562 163.597 109.562C182.516 109.562 197.909 94.1538 197.909 75.2153C197.909 56.2753 182.516 40.8681 163.597 40.8681Z" fill="#100227"/>
<path fill-rule="evenodd" clip-rule="evenodd" d="M163.597 97.9928C151.051 97.9928 140.844 87.7756 140.844 75.2156C140.844 62.6571 151.051 52.4385 163.597 52.4385C176.143 52.4385 186.35 62.6571 186.35 75.2156C186.35 87.7756 176.143 97.9928 163.597 97.9928ZM163.597 56.7285C153.414 56.7285 145.13 65.0228 145.13 75.2156C145.13 85.4099 153.414 93.7028 163.597 93.7028C173.78 93.7028 182.064 85.4099 182.064 75.2156C182.064 65.0228 173.78 56.7285 163.597 56.7285Z" fill="#100227"/>
<path fill-rule="evenodd" clip-rule="evenodd" d="M170.783 40.0169H155.069C153.886 40.0169 152.926 39.0569 152.926 37.8726V25.0012C152.926 23.8169 153.886 22.8569 155.069 22.8569H170.783C171.967 22.8569 172.926 23.8169 172.926 25.0012V37.8726C172.926 39.0569 171.967 40.0169 170.783 40.0169ZM157.211 35.7269H168.64V27.1469H157.211V35.7269Z" fill="#100227"/>
<path fill-rule="evenodd" clip-rule="evenodd" d="M173.003 84.1171C172.654 84.1171 172.298 84.0328 171.971 83.8528L161.178 77.9043C160.494 77.5271 160.068 76.8071 160.068 76.0243V65.7585C160.068 64.5743 161.028 63.6143 162.211 63.6143C163.396 63.6143 164.354 64.5743 164.354 65.7585V74.7571L174.038 80.0928C175.076 80.6657 175.453 81.97 174.883 83.0071C174.493 83.7171 173.758 84.1171 173.003 84.1171Z" fill="#100227"/>
</svg>
